{"title":"The Motorcycle Diaries 2004 Bluray 1080p DTS VC-1 MARSViN","uid":6350958,"size":17901778240,"categoryP":"video","categoryS":"hd___movies","magnet":"?xt=urn:btih:2b52356c5899b181f890694456536022da367413&amp;dn=The+Motorcycle+Diaries+2004+Bluray+1080p+DTS+VC-1+MARSViN&amp;tr=udp%3A%2F%2Ftracker.openbittorrent.com%3A80&amp;tr=udp%3A%2F%2Fopen.demonii.com%3A1337&amp;tr=udp%3A%2F%2Ftracker.coppersurfer.tk%3A6969&amp;tr=udp%3A%2F%2Fexodus.desync.com%3A6969","seeders":0,"leechers":1,"uploader":"labbi4","files":3,"time":1303997930,"description":"The.Motorcycle.Diaries.2004.Bluray.1080p.DTS.VC-1-MARSViN\nGeneral\nComplete name                    : X:\\\\TMD_MARSViN.1080p.mkv\nFormat                           : Matroska\nFile size                        : 16.7 GiB\nDuration                         : 2h 5mn\nOverall bit rate                 : 19.0 Mbps\nEncoded date                     : UTC 2011-04-27 22:44:06\nWriting application              : mkvmerge v4.7.0 ('Just Like You Imagined') built on Apr 21 2011 01:13:14\nWriting library                  : libebml v1.2.0 + libmatroska v1.1.0\n\nVideo\nID                               : 1\nFormat                           : VC-1\nFormat profile                   : AP@L3\nCodec ID                         : WVC1\nCodec ID/Hint                    : Microsoft\nDuration                         : 2h 5mn\nBit rate                         : 17.1 Mbps\nWidth                            : 1 920 pixels\nHeight                           : 1 080 pixels\nDisplay aspect ratio             : 16:9\nFrame rate                       : 23.976 fps\nChroma subsampling               : 4:2:0\nBit depth                        : 8 bits\nScan type                        : Progressive\nBits/(Pixel*Frame)               : 0.344\nStream size                      : 15.0 GiB (90%)\n\nAudio\nID                               : 2\nFormat                           : DTS\nFormat/Info                      : Digital Theater Systems\nMuxing mode                      : Header stripping\nCodec ID                         : A_DTS\nDuration                         : 2h 5mn\nBit rate mode                    : Constant\nBit rate                         : 1 510 Kbps\nChannel(s)                       : 6 channels\nChannel positions                : Front: L C R, Side: L R, LFE\nSampling rate                    : 48.0 KHz\nBit depth                        : 24 bits\nStream size                      : 1.33 GiB (8%)\nTitle                            : DTS\nLanguage                         : Spanish\n\nText\nID                               : 3\nFormat                           : PGS\nMuxing mode                      : zlib\nCodec ID                         : S_HDMV/PGS\nCodec ID/Info                    : The same subtitle format used on BDs/HD-DVDs\nLanguage                         : English\n\n\nEnglish subs are original Blu-Ray .sup. I use Splash PRO, and playback is impeccable!\nMPC works good too, but it will not load the coded subtitle, so I included an .srt as well.\n\nMY VERY FIRST RIP, IT'S ALL TRY AND ERROR RIGHT?\n\nMARSViN 2011\n","torrent":{"xt":"urn:btih:2b52356c5899b181f890694456536022da367413","amp;dn":"The+Motorcycle+Diaries+2004+Bluray+1080p+DTS+VC-1+MARSViN","amp;tr":["udp%3A%2F%2Ftracker.openbittorrent.com%3A80","udp%3A%2F%2Fopen.demonii.com%3A1337","udp%3A%2F%2Ftracker.coppersurfer.tk%3A6969","udp%3A%2F%2Fexodus.desync.com%3A6969"],"infoHash":"2b52356c5899b181f890694456536022da367413","infoHashBuffer":{"type":"Buffer","data":[43,82,53,108,88,153,177,129,248,144,105,68,86,83,96,34,218,54,116,19]},"announce":[],"urlList":[]}}